<svg width="548" height="139" viewBox="0 0 548 139" fill="none" xmlns="http://www.w3.org/2000/svg">
<path d="M547 41.5C547 43.7932 545.105 46.3313 540.695 49.0089C536.356 51.644 529.89 54.2208 521.471 56.6942C504.646 61.6366 480.252 66.0999 450.05 69.8526C389.661 77.3561 306.204 82 214 82C121.796 82 38.3394 77.3561 -22.0504 69.8526C-52.2523 66.0999 -76.6465 61.6366 -93.4708 56.6942C-101.89 54.2208 -108.356 51.644 -112.695 49.0089C-117.105 46.3313 -119 43.7932 -119 41.5C-119 39.2068 -117.105 36.6687 -112.695 33.9911C-108.356 31.356 -101.89 28.7792 -93.4708 26.3058C-76.6465 21.3634 -52.2523 16.9001 -22.0504 13.1474C38.3394 5.64391 121.796 1 214 1C306.204 1 389.661 5.64391 450.05 13.1474C480.252 16.9001 504.646 21.3634 521.471 26.3058C529.89 28.7792 536.356 31.356 540.695 33.9911C545.105 36.6687 547 39.2068 547 41.5Z" stroke="white" stroke-opacity="0.5" stroke-width="2"/>
<path d="M547 97.5C547 99.7932 545.105 102.331 540.695 105.009C536.356 107.644 529.89 110.221 521.471 112.694C504.646 117.637 480.252 122.1 450.05 125.853C389.661 133.356 306.204 138 214 138C121.796 138 38.3394 133.356 -22.0504 125.853C-52.2523 122.1 -76.6465 117.637 -93.4708 112.694C-101.89 110.221 -108.356 107.644 -112.695 105.009C-117.105 102.331 -119 99.7932 -119 97.5C-119 95.2068 -117.105 92.6687 -112.695 89.9911C-108.356 87.356 -101.89 84.7792 -93.4708 82.3058C-76.6465 77.3634 -52.2523 72.9001 -22.0504 69.1474C38.3394 61.6439 121.796 57 214 57C306.204 57 389.661 61.6439 450.05 69.1474C480.252 72.9001 504.646 77.3634 521.471 82.3058C529.89 84.7792 536.356 87.356 540.695 89.9911C545.105 92.6687 547 95.2068 547 97.5Z" stroke="white" stroke-opacity="0.5" stroke-width="2"/>
<path d="M547 56.5C547 58.7932 545.105 61.3313 540.695 64.0089C536.356 66.644 529.89 69.2208 521.471 71.6942C504.646 76.6366 480.252 81.0999 450.05 84.8526C389.661 92.3561 306.204 97 214 97C121.796 97 38.3394 92.3561 -22.0504 84.8526C-52.2523 81.0999 -76.6465 76.6366 -93.4708 71.6942C-101.89 69.2208 -108.356 66.644 -112.695 64.0089C-117.105 61.3313 -119 58.7932 -119 56.5C-119 54.2068 -117.105 51.6687 -112.695 48.9911C-108.356 46.356 -101.89 43.7792 -93.4708 41.3058C-76.6465 36.3634 -52.2523 31.9001 -22.0504 28.1474C38.3394 20.6439 121.796 16 214 16C306.204 16 389.661 20.6439 450.05 28.1474C480.252 31.9001 504.646 36.3634 521.471 41.3058C529.89 43.7792 536.356 46.356 540.695 48.9911C545.105 51.6687 547 54.2068 547 56.5Z" stroke="white" stroke-opacity="0.5" stroke-width="2"/>
<path d="M547 70.5C547 72.7932 545.105 75.3313 540.695 78.0089C536.356 80.644 529.89 83.2208 521.471 85.6942C504.646 90.6366 480.252 95.0999 450.05 98.8526C389.661 106.356 306.204 111 214 111C121.796 111 38.3394 106.356 -22.0504 98.8526C-52.2523 95.0999 -76.6465 90.6366 -93.4708 85.6942C-101.89 83.2208 -108.356 80.644 -112.695 78.0089C-117.105 75.3313 -119 72.7932 -119 70.5C-119 68.2068 -117.105 65.6687 -112.695 62.9911C-108.356 60.356 -101.89 57.7792 -93.4708 55.3058C-76.6465 50.3634 -52.2523 45.9001 -22.0504 42.1474C38.3394 34.6439 121.796 30 214 30C306.204 30 389.661 34.6439 450.05 42.1474C480.252 45.9001 504.646 50.3634 521.471 55.3058C529.89 57.7792 536.356 60.356 540.695 62.9911C545.105 65.6687 547 68.2068 547 70.5Z" stroke="white" stroke-opacity="0.5" stroke-width="2"/>
<path d="M547 83.5C547 85.7932 545.105 88.3313 540.695 91.0089C536.356 93.644 529.89 96.2208 521.471 98.6942C504.646 103.637 480.252 108.1 450.05 111.853C389.661 119.356 306.204 124 214 124C121.796 124 38.3394 119.356 -22.0504 111.853C-52.2523 108.1 -76.6465 103.637 -93.4708 98.6942C-101.89 96.2208 -108.356 93.644 -112.695 91.0089C-117.105 88.3313 -119 85.7932 -119 83.5C-119 81.2068 -117.105 78.6687 -112.695 75.9911C-108.356 73.356 -101.89 70.7792 -93.4708 68.3058C-76.6465 63.3634 -52.2523 58.9001 -22.0504 55.1474C38.3394 47.6439 121.796 43 214 43C306.204 43 389.661 47.6439 450.05 55.1474C480.252 58.9001 504.646 63.3634 521.471 68.3058C529.89 70.7792 536.356 73.356 540.695 75.9911C545.105 78.6687 547 81.2068 547 83.5Z" stroke="white" stroke-opacity="0.5" stroke-width="2"/>
</svg>
