<svg width="561" height="160" viewBox="0 0 561 160" fill="none" xmlns="http://www.w3.org/2000/svg">
<path d="M560 47.7698C560 50.64 558.294 53.6054 554.662 56.6284C551.039 59.6431 545.637 62.5964 538.583 65.4363C524.487 71.1122 504.029 76.2446 478.676 80.5623C427.986 89.1949 357.92 94.5396 280.5 94.5396C203.08 94.5396 133.014 89.1949 82.3244 80.5623C56.9714 76.2446 36.5134 71.1122 22.4166 65.4363C15.3635 62.5964 9.96081 59.6431 6.33845 56.6284C2.70604 53.6054 1 50.64 1 47.7698C1 44.8996 2.70604 41.9342 6.33845 38.9111C9.96081 35.8964 15.3635 32.9431 22.4166 30.1033C36.5134 24.4273 56.9714 19.2949 82.3244 14.9773C133.014 6.34466 203.08 1 280.5 1C357.92 1 427.986 6.34466 478.676 14.9773C504.029 19.2949 524.487 24.4273 538.583 30.1033C545.637 32.9431 551.039 35.8964 554.662 38.9111C558.294 41.9342 560 44.8996 560 47.7698Z" stroke="white" stroke-opacity="0.5" stroke-width="2"/>
<path d="M560 112.23C560 115.1 558.294 118.066 554.662 121.089C551.039 124.104 545.637 127.057 538.583 129.897C524.487 135.573 504.029 140.705 478.676 145.023C427.986 153.655 357.92 159 280.5 159C203.08 159 133.014 153.655 82.3244 145.023C56.9714 140.705 36.5134 135.573 22.4166 129.897C15.3635 127.057 9.96081 124.104 6.33845 121.089C2.70604 118.066 1 115.1 1 112.23C1 109.36 2.70604 106.395 6.33845 103.372C9.96081 100.357 15.3635 97.4036 22.4166 94.5637C36.5134 88.8878 56.9714 83.7554 82.3244 79.4377C133.014 70.8051 203.08 65.4604 280.5 65.4604C357.92 65.4604 427.986 70.8051 478.676 79.4377C504.029 83.7554 524.487 88.8878 538.583 94.5637C545.637 97.4036 551.039 100.357 554.662 103.372C558.294 106.395 560 109.36 560 112.23Z" stroke="white" stroke-opacity="0.5" stroke-width="2"/>
<path d="M560 65.036C560 67.9062 558.294 70.8715 554.662 73.8946C551.039 76.9093 545.637 79.8626 538.583 82.7025C524.487 88.3784 504.029 93.5108 478.676 97.8285C427.986 106.461 357.92 111.806 280.5 111.806C203.08 111.806 133.014 106.461 82.3244 97.8285C56.9714 93.5108 36.5134 88.3784 22.4166 82.7025C15.3635 79.8626 9.96081 76.9093 6.33845 73.8946C2.70604 70.8715 1 67.9062 1 65.036C1 62.1657 2.70604 59.2004 6.33845 56.1773C9.96081 53.1626 15.3635 50.2093 22.4166 47.3694C36.5134 41.6935 56.9714 36.5611 82.3244 32.2434C133.014 23.6108 203.08 18.2662 280.5 18.2662C357.92 18.2662 427.986 23.6108 478.676 32.2434C504.029 36.5611 524.487 41.6935 538.583 47.3694C545.637 50.2093 551.039 53.1626 554.662 56.1773C558.294 59.2004 560 62.1657 560 65.036Z" stroke="white" stroke-opacity="0.5" stroke-width="2"/>
<path d="M560 81.1511C560 84.0213 558.294 86.9867 554.662 90.0097C551.039 93.0244 545.637 95.9777 538.583 98.8176C524.487 104.494 504.029 109.626 478.676 113.944C427.986 122.576 357.92 127.921 280.5 127.921C203.08 127.921 133.014 122.576 82.3244 113.944C56.9714 109.626 36.5134 104.494 22.4166 98.8176C15.3635 95.9777 9.96081 93.0244 6.33845 90.0097C2.70604 86.9867 1 84.0213 1 81.1511C1 78.2808 2.70604 75.3155 6.33845 72.2924C9.96081 69.2777 15.3635 66.3244 22.4166 63.4845C36.5134 57.8086 56.9714 52.6762 82.3244 48.3585C133.014 39.7259 203.08 34.3813 280.5 34.3813C357.92 34.3813 427.986 39.7259 478.676 48.3585C504.029 52.6762 524.487 57.8086 538.583 63.4845C545.637 66.3244 551.039 69.2777 554.662 72.2924C558.294 75.3155 560 78.2808 560 81.1511Z" stroke="white" stroke-opacity="0.5" stroke-width="2"/>
<path d="M560 96.1151C560 98.9853 558.294 101.951 554.662 104.974C551.039 107.988 545.637 110.942 538.583 113.782C524.487 119.458 504.029 124.59 478.676 128.908C427.986 137.54 357.92 142.885 280.5 142.885C203.08 142.885 133.014 137.54 82.3244 128.908C56.9714 124.59 36.5134 119.458 22.4166 113.782C15.3635 110.942 9.96081 107.988 6.33845 104.974C2.70604 101.951 1 98.9853 1 96.1151C1 93.2449 2.70604 90.2795 6.33845 87.2565C9.96081 84.2418 15.3635 81.2885 22.4166 78.4486C36.5134 72.7727 56.9714 67.6403 82.3244 63.3226C133.014 54.69 203.08 49.3453 280.5 49.3453C357.92 49.3453 427.986 54.69 478.676 63.3226C504.029 67.6403 524.487 72.7727 538.583 78.4486C545.637 81.2885 551.039 84.2418 554.662 87.2565C558.294 90.2795 560 93.2449 560 96.1151Z" stroke="white" stroke-opacity="0.5" stroke-width="2"/>
</svg>
